<?xml version="1.0" encoding="UTF-8"?>
<svg version="1.1" xmlns="http://www.w3.org/2000/svg" width="512" height="512">
<path d="M0 0 C1.13348702 -0.00623996 2.26697404 -0.01247993 3.43480915 -0.01890898 C7.20552981 -0.03477163 10.975598 -0.02226049 14.74632263 -0.00964355 C17.46076275 -0.01286862 20.17517579 -0.02204802 22.88960266 -0.03088379 C29.48022043 -0.04861283 36.07065535 -0.04485441 42.6612801 -0.03323323 C48.01992883 -0.02417772 53.37852652 -0.02298403 58.73718071 -0.02732849 C59.88377688 -0.02824789 59.88377688 -0.02824789 61.05353661 -0.02918586 C62.60667143 -0.03046484 64.15980625 -0.03176169 65.71294104 -0.03307623 C80.25523024 -0.04446537 94.79741836 -0.03139414 109.33969098 -0.00987476 C121.80357319 0.00799832 134.26730638 0.00488719 146.73118591 -0.0135498 C161.22510238 -0.03497983 175.71893042 -0.04337066 190.21286052 -0.03110075 C191.7597856 -0.02982663 193.30671069 -0.02856914 194.85363579 -0.02732849 C195.61464235 -0.02671139 196.3756489 -0.02609429 197.15971627 -0.02545848 C202.50921488 -0.02201224 207.85865716 -0.02781816 213.20814705 -0.0372467 C219.73122412 -0.04849165 226.25410877 -0.04537431 232.77716393 -0.02412373 C236.10212376 -0.01364694 239.42649944 -0.01160411 242.75149727 -0.02272034 C246.36264397 -0.03367878 249.9728945 -0.01990682 253.58398438 0 C254.62514532 -0.00892289 255.66630627 -0.01784577 256.73901755 -0.02703905 C266.47796994 0.07683014 274.36849626 2.85711755 281.47459412 9.58996582 C287.07113392 15.71001268 290.0052463 22.14983707 290.35350037 30.50793457 C290.31225037 31.16793457 290.27100037 31.82793457 290.22850037 32.50793457 C290.88850037 32.54918457 291.54850037 32.59043457 292.22850037 32.63293457 C303.05083116 35.78944772 312.09167228 47.3724483 317.66209412 56.61340332 C324.25265634 68.79197342 326.53320241 79.61948495 326.48919678 93.35420227 C326.49302232 94.62749364 326.49684787 95.90078501 326.50078934 97.21266097 C326.51103084 100.72648185 326.5088974 104.24020026 326.50460875 107.75402939 C326.50213448 111.5516933 326.51116441 115.34933298 326.51864624 119.14698792 C326.53137613 126.5793859 326.53318904 134.01174773 326.53084598 141.44415478 C326.52906063 147.48789181 326.5308171 153.5316179 326.53507042 159.57535362 C326.53566561 160.43658225 326.5362608 161.29781087 326.53687402 162.18513733 C326.53808582 163.93491875 326.53929995 165.68470017 326.5405164 167.43448158 C326.55138549 183.83333427 326.54923252 200.23216637 326.54313155 216.63102021 C326.53796379 231.61824207 326.54921526 246.6053989 326.56822977 261.59260789 C326.58762344 276.99728596 326.59586144 292.40193329 326.59210652 307.80662364 C326.59019669 316.4488153 326.59266068 325.09095164 326.60682106 333.73313332 C326.61875538 341.09095547 326.62011685 348.44868825 326.60803089 355.80651168 C326.60215638 359.55688744 326.60100296 363.30709987 326.61303329 367.0574646 C326.62595106 371.13201012 326.61539374 375.20616965 326.60272217 379.28071594 C326.61009645 380.45359864 326.61747074 381.62648133 326.62506849 382.83490592 C326.55657632 393.33854418 324.51584364 403.121252 319.72850037 412.50793457 C319.21899841 413.51521606 319.21899841 413.51521606 318.69920349 414.54284668 C314.94446207 421.58466009 309.94037778 427.00698321 304.22850037 432.50793457 C303.24430115 433.5211377 303.24430115 433.5211377 302.24021912 434.55480957 C286.2914564 449.99129939 264.36513664 451.11089656 243.55271912 451.0255127 C241.31033374 451.03094418 239.06795194 451.03807256 236.82557678 451.04675293 C230.78009787 451.064867 224.73489441 451.0579682 218.68941116 451.04523659 C212.33614152 451.03504684 205.98289407 451.04451876 199.62962341 451.05078125 C188.28287421 451.05850413 176.9362637 451.04614262 165.58954227 451.0257439 C155.33404233 451.0078767 145.0787236 451.01098199 134.82322693 451.02941895 C122.8690469 451.05090014 110.91497661 451.05875329 98.96077061 451.04696989 C92.64920266 451.04076221 86.33775909 451.03982389 80.02619934 451.05311584 C74.08996145 451.06474614 68.15406276 451.05651822 62.21786118 451.03353882 C60.05084672 451.0282899 57.88380327 451.02969925 55.71680069 451.03858948 C31.67942404 451.12804506 12.12175368 446.44585571 -5.91603088 429.49230957 C-12.55557772 422.63694572 -17.31464761 413.90881184 -19.79884338 404.69934082 C-21.10006578 400.42986815 -23.03139688 399.8366778 -26.77149963 397.50793457 C-34.21399193 390.34926613 -37.52706209 383.43305814 -37.84962463 372.97497559 C-37.86956746 370.17275903 -37.85889927 367.37260174 -37.83399963 364.57043457 C-37.82948792 363.60041504 -37.8249762 362.63039551 -37.82032776 361.63098145 C-37.80863114 359.25656697 -37.79224049 356.88228436 -37.77149963 354.50793457 C-36.85207581 354.48606079 -36.85207581 354.48606079 -35.91407776 354.46374512 C-12.4650443 355.09283426 -12.4650443 355.09283426 8.22850037 346.50793457 C8.47854001 343.04972055 8.47854001 343.04972055 8.22850037 339.50793457 C7.56850037 338.84793457 6.90850037 338.18793457 6.22850037 337.50793457 C3.98087711 337.64022169 3.98087711 337.64022169 1.41600037 338.25793457 C0.4143988 338.4564502 -0.58720276 338.65496582 -1.61915588 338.85949707 C-3.60667683 339.26833037 -5.59372608 339.67946999 -7.58009338 340.09387207 C-26.54524022 343.56955635 -47.83316509 342.97104916 -65.77149963 335.50793457 C-68.16436847 333.11506573 -68.0920058 332.41346363 -68.14649963 329.13293457 C-68.05602268 326.01147971 -67.8795391 324.692502 -66.27149963 321.94543457 C-58.89486944 317.70387221 -45.45163295 322.32908751 -38.77149963 323.50793457 C-38.44149963 288.52793457 -38.11149963 253.54793457 -37.77149963 217.50793457 C-26.88149963 216.51793457 -26.88149963 216.51793457 -15.77149963 215.50793457 C-5.30655417 214.14125493 -5.30655417 214.14125493 3.22850037 208.50793457 C3.61962343 205.3789501 3.86305941 203.41182415 2.01365662 200.77746582 C0.29239152 199.28165177 0.29239152 199.28165177 -1.98634338 199.58215332 C-2.88481995 199.78453613 -3.78329651 199.98691895 -4.70899963 200.19543457 C-23.48686355 203.81526376 -41.92615017 204.62300053 -60.70899963 200.69543457 C-61.4606842 200.54251953 -62.21236877 200.38960449 -62.98683167 200.23205566 C-67.33958533 199.22064818 -70.04323834 198.09991678 -72.77149963 194.50793457 C-73.92861772 190.88229791 -74.10667053 189.24531055 -72.52149963 185.75793457 C-70.77149963 183.50793457 -70.77149963 183.50793457 -67.77149963 181.50793457 C-65.86134338 181.46105957 -65.86134338 181.46105957 -63.70899963 181.75793457 C-62.5121051 181.92035645 -62.5121051 181.92035645 -61.29103088 182.08605957 C-58.8104541 182.50141196 -56.35750411 182.98982836 -53.89649963 183.50793457 C-48.58056415 184.54519027 -43.16544235 185.01757614 -37.77149963 185.50793457 C-37.77149963 149.86793457 -37.77149963 114.22793457 -37.77149963 77.50793457 C-33.81149963 77.50793457 -29.85149963 77.50793457 -25.77149963 77.50793457 C-22.92720653 77.3174797 -20.15540028 77.10090537 -17.33399963 76.75793457 C-16.62171204 76.67140625 -15.90942444 76.58487793 -15.17555237 76.49572754 C-8.58884716 75.61416427 -1.77398073 74.44674931 4.22850037 71.50793457 C5.94642855 69.01273052 6.24848851 67.92768568 6.10350037 64.88293457 C5.44844258 62.43507881 5.44844258 62.43507881 3.56443787 61.27746582 C0.31036355 60.20547144 -1.7354261 60.93662095 -5.02149963 61.82043457 C-24.99294088 67.09996629 -49.65021294 66.78156824 -68.77149963 58.50793457 C-71.26309003 54.77054897 -71.22943248 52.93461874 -70.77149963 48.50793457 C-69.33399963 45.57043457 -69.33399963 45.57043457 -66.77149963 43.50793457 C-60.21267848 42.54335107 -53.5937418 44.12137281 -47.20899963 45.50793457 C-45.83904846 45.79410645 -45.83904846 45.79410645 -44.44142151 46.08605957 C-42.21629877 46.55205386 -39.99323688 47.02610432 -37.77149963 47.50793457 C-37.79470276 46.3967627 -37.81790588 45.28559082 -37.84181213 44.14074707 C-38.04778093 30.480712 -37.53376514 19.55097388 -28.20899963 8.68762207 C-20.45755733 1.27157871 -10.2842092 -0.08832627 0 0 Z M82.22850037 81.50793457 C77.08317944 87.68621765 73.3007898 94.10739692 70.41600037 101.63293457 C68.01835181 107.1245351 68.01835181 107.1245351 64.68553162 108.74230957 C62.66303346 109.18047298 60.62541588 109.55263988 58.58006287 109.86730957 C44.98532237 112.46583806 33.80326741 122.2910789 25.76365662 133.10559082 C17.92916108 145.36567926 16.16118001 158.82874829 18.91209412 173.03918457 C19.84417753 175.97853477 20.93181156 178.7113142 22.22850037 181.50793457 C22.6293988 182.41543457 23.03029724 183.32293457 23.44334412 184.25793457 C29.27126912 196.15028008 39.34838042 206.5678746 51.22850037 212.50793457 C51.22992538 213.66336761 51.2313504 214.81880066 51.2328186 216.00924683 C51.24952559 226.9257028 51.29241235 237.84178777 51.36059093 248.7580471 C51.39480599 254.3695543 51.41996243 259.98079081 51.42405701 265.59240723 C51.42835164 271.01322289 51.45691147 276.4334285 51.50193214 281.8540535 C51.51486985 283.91673853 51.51922812 285.97949671 51.51465416 288.04221725 C51.02947638 303.16403692 51.02947638 303.16403692 57.22850037 316.50793457 C65.7262892 324.65813133 74.25757712 324.80495403 85.56419373 324.78259277 C86.91183758 324.78694536 88.25947896 324.79213032 89.6071167 324.79808044 C93.2517793 324.81142234 96.8963379 324.81205455 100.54102015 324.80951715 C103.5901235 324.80844425 106.63920608 324.81333887 109.68830496 324.81812257 C116.8845807 324.82920091 124.08080422 324.82966446 131.27708435 324.8236084 C138.687191 324.81756806 146.0971078 324.8298849 153.50718206 324.85117847 C159.88277928 324.86882192 166.25831622 324.87479155 172.63393694 324.87154073 C176.43587033 324.86973224 180.23766824 324.87232049 184.03957939 324.88625526 C187.61591716 324.89887399 191.19195989 324.89685167 194.76829338 324.88384438 C196.69661613 324.8803694 198.62494805 324.89162645 200.55323792 324.90341187 C209.72355219 324.8480577 216.74584158 323.6110651 223.68943787 317.25402832 C229.4112589 310.7625207 230.37295844 303.51127492 230.43382263 295.15930176 C230.44372223 294.31991058 230.45362183 293.48051941 230.46382141 292.61569214 C230.49537035 289.84542649 230.52016772 287.07514371 230.54490662 284.30480957 C230.56548185 282.38238076 230.58647847 280.45995642 230.60787964 278.53753662 C230.66304152 273.48070903 230.71247675 268.423841 230.76072693 263.36694336 C230.81098491 258.20557055 230.86664854 253.04425636 230.92185974 247.88293457 C231.02936936 237.75798467 231.13083031 227.63298384 231.22850037 217.50793457 C231.98331696 217.10381348 232.73813354 216.69969238 233.51582336 216.2833252 C234.50623627 215.74900879 235.49664917 215.21469238 236.51707458 214.66418457 C237.49876617 214.13631348 238.48045776 213.60844238 239.49189758 213.0645752 C253.37983708 205.16480584 262.92353884 190.62654944 267.22850037 175.50793457 C267.41799255 174.9123877 267.60748474 174.31684082 267.80271912 173.70324707 C270.44979066 160.05504332 267.75728582 147.20891535 260.04100037 135.75793457 C251.0741987 123.17148958 239.09806703 115.43574463 224.22850037 111.50793457 C222.58290844 111.33890096 220.93709532 111.17199719 219.29100037 111.00793457 C217.11521912 110.56652832 217.11521912 110.56652832 215.22850037 109.50793457 C213.56810772 106.69487265 212.53712541 103.88146915 211.45506287 100.80090332 C207.92006343 91.31044306 201.24260771 83.64466617 194.22850037 76.50793457 C193.61490662 75.8814502 193.00131287 75.25496582 192.36912537 74.60949707 C178.83613516 61.82833966 159.62285387 54.91212706 141.22850037 54.25793457 C118.60758567 55.06076453 97.33770996 64.62052122 82.22850037 81.50793457 Z M290.22850037 69.50793457 C290.22703515 70.47981675 290.22703515 70.47981675 290.22554034 71.47133291 C290.16725104 109.88407135 290.09344118 148.29675197 289.99951408 186.70942052 C289.98824611 191.32308509 289.97710762 195.93674996 289.96604919 200.55041504 C289.96384551 201.46890128 289.96164183 202.38738753 289.95937137 203.33370669 C289.92401216 218.19995309 289.89914025 233.06619943 289.87815335 247.93247227 C289.85638034 263.18998162 289.82331565 278.44743646 289.77979881 293.70489943 C289.75330796 303.11733234 289.73559368 312.52969735 289.72915433 321.94216569 C289.72389259 328.39922635 289.70764925 334.85620162 289.68283471 341.31321649 C289.6688466 345.03693693 289.65963881 348.76050459 289.6634922 352.48425293 C289.66754889 356.52716984 289.64844919 360.56965512 289.62722778 364.61251831 C289.63449915 366.3664438 289.63449915 366.3664438 289.64191741 368.15580213 C289.5520227 378.54401945 287.86263831 387.56648001 280.50975037 395.32043457 C272.84925206 402.61614724 264.87081008 403.95891948 254.54135132 403.90666199 C252.98010846 403.91663223 252.98010846 403.91663223 251.38732535 403.92680389 C247.91883676 403.94537475 244.45069493 403.94283252 240.98216248 403.94030762 C238.48825089 403.94932835 235.99434373 403.95965634 233.5004425 403.97119141 C228.14106128 403.99304859 222.78177678 404.00585336 217.42236137 404.01032066 C209.67369094 404.01679532 201.92513732 404.03975574 194.1765141 404.06666396 C181.60312039 404.10988261 169.02973161 404.13987743 156.45628357 404.16149902 C144.2466235 404.18252349 132.03700376 404.20981137 119.82737732 404.2454834 C119.07403195 404.24768222 118.32068658 404.24988105 117.54451256 404.2521465 C113.76497794 404.26321652 109.98544369 404.27440926 106.20590961 404.28566301 C74.88014014 404.37877839 43.55435596 404.45018733 12.22850037 404.50793457 C13.18123747 405.63771725 14.13657225 406.7653097 15.09300232 407.89196777 C15.62472549 408.52012894 16.15644867 409.1482901 16.70428467 409.79548645 C23.16538233 417.05449484 33.22533163 421.31188669 42.79039192 421.87447929 C48.51729802 422.07341437 54.24347285 422.03773998 59.97288513 422.00964355 C62.17500656 422.01343088 64.3771256 422.01893431 66.57923889 422.02601624 C72.53578263 422.03993324 78.4920363 422.02882763 84.44856381 422.01230502 C90.69389123 421.99841468 96.93920249 422.00491907 103.18453979 422.00843811 C113.66953154 422.01113688 124.15442805 421.99778095 134.63938904 421.9744873 C145.40896357 421.95056432 156.17838645 421.94348686 166.94798279 421.95397949 C179.95438219 421.96662886 192.96070208 421.96407862 205.96710014 421.94832039 C210.92419512 421.94257337 215.88123934 421.94263316 220.83833504 421.94738579 C226.6784149 421.95216991 232.51828581 421.94199428 238.35832596 421.92043114 C240.49721637 421.91488293 242.63612694 421.91437983 244.77501869 421.919384 C247.70294354 421.92537346 250.6302373 421.9127617 253.55810547 421.89561462 C254.3969371 421.90162467 255.23576874 421.90763471 256.10001951 421.91382688 C267.14216889 421.7968785 277.28032562 417.9456705 285.45896912 410.46887207 C292.44250214 403.05296271 297.33940776 394.59300118 297.36551476 384.2703476 C297.3705893 383.20386474 297.37566384 382.13738189 297.38089216 381.03858137 C297.38138991 379.867788 297.38188767 378.69699462 297.38240051 377.49072266 C297.38678277 376.24620472 297.39116502 375.00168679 297.39568007 373.7194562 C297.40673997 370.26276805 297.41329105 366.80612511 297.41786122 363.34942579 C297.42382227 359.62188777 297.43543095 355.89436639 297.44615173 352.1668396 C297.47066569 343.16281533 297.48530217 334.15878556 297.4982118 325.15473819 C297.50192471 322.61069945 297.50589787 320.06666126 297.50996447 317.52262306 C297.53520386 301.71802692 297.55725285 285.9134299 297.56969261 270.10881805 C297.57262222 266.44856259 297.5755839 262.78830715 297.57859802 259.12805176 C297.5797171 257.76347417 297.5797171 257.76347417 297.58085878 256.37132937 C297.59350584 241.64241753 297.62672062 226.91362659 297.66839986 212.18477124 C297.71085908 197.05597984 297.73439232 181.92725026 297.73961318 166.79839945 C297.74302295 158.3069793 297.75472678 149.81574801 297.78771591 141.3243866 C297.81577257 134.09084599 297.82669126 126.85753298 297.81552045 119.6239422 C297.81034791 115.93626059 297.81312789 112.24905517 297.83798599 108.56144333 C297.86477122 104.55430702 297.8523705 100.54820998 297.83650208 96.54101562 C297.85038416 95.38806802 297.86426625 94.23512042 297.87856901 93.04723501 C297.79809982 84.77082188 296.33020045 75.60963465 290.22850037 69.50793457 Z " fill="#D15BFF" transform="translate(130.77149963378906,30.4920654296875)"/>
<path d="M0 0 C13.7859722 10.54697727 22.26021726 25.20206138 25.54296875 42.2109375 C26.37807206 49.13444354 26.22747261 56.04102322 26 63 C34.88886939 60.50220312 34.88886939 60.50220312 41 54 C41.391875 53.401875 41.78375 52.80375 42.1875 52.1875 C43.42683796 48.85082088 43.64625018 45.53749824 44 42 C54.42531102 43.84965196 64.35605906 47.76553383 70.84765625 56.48046875 C77.5493723 66.4573561 79.64885324 75.63340511 77.53515625 87.640625 C74.61266261 98.63888507 67.81291059 109.26728725 57.96386719 115.23339844 C53.59957258 117.67187948 49.15142746 119.92669959 44.64477539 122.08959961 C42.80911192 123.00673826 42.80911192 123.00673826 41 125 C40.67 146.78 40.34 168.56 40 191 C-8.84 191 -57.68 191 -108 191 C-108.99 154.865 -108.99 154.865 -110 118 C-111.65 117.34 -113.3 116.68 -115 116 C-128.51878462 109.17346141 -136.76611396 99.30550504 -141.66796875 85.05859375 C-143.39653712 74.34146989 -142.70622083 63.99538802 -136.5625 54.86328125 C-130.69305514 47.45592896 -122.29968594 41.85993719 -113 40 C-112.91363281 40.71285156 -112.82726562 41.42570312 -112.73828125 42.16015625 C-111.6057037 49.8803867 -109.84168371 55.04485868 -103.5625 59.875 C-100.70359164 61.1301305 -98.0931415 61.64033238 -95 62 C-95.03480469 61.319375 -95.06960937 60.63875 -95.10546875 59.9375 C-95.68157297 39.30748232 -89.10232778 20.59423159 -75.0625 5.3125 C-54.78486239 -14.23693515 -23.04679348 -15.37594394 0 0 Z M-34 93 C-34.59834188 95.83987605 -34.59834188 95.83987605 -34.51757812 98.90429688 C-34.53018677 100.06900513 -34.54279541 101.23371338 -34.55578613 102.43371582 C-34.54768921 103.6827771 -34.53959229 104.93183838 -34.53125 106.21875 C-34.5350769 107.50938354 -34.53890381 108.80001709 -34.54284668 110.12976074 C-34.5487312 112.85672229 -34.54021376 115.58315833 -34.52148438 118.31005859 C-34.49869402 121.79728782 -34.51182293 125.28328558 -34.53577423 128.77046967 C-34.55374291 132.10749394 -34.54114484 135.44419078 -34.53125 138.78125 C-34.53934692 140.03031128 -34.54744385 141.27937256 -34.55578613 142.56628418 C-34.54317749 143.73099243 -34.53056885 144.89570068 -34.51757812 146.09570312 C-34.51439575 147.11764771 -34.51121338 148.13959229 -34.50793457 149.19250488 C-33.8631029 152.75666823 -32.529172 154.44872662 -30 157 C-26.18399029 157.81191696 -24.62069008 157.4012126 -21.35009766 155.28710938 C-17.230945 150.91020755 -18.29049448 144.38941557 -18.3359375 138.78125 C-18.33115387 137.49061646 -18.32637024 136.19998291 -18.32144165 134.87023926 C-18.3140857 132.1431677 -18.32473215 129.4169172 -18.34814453 126.68994141 C-18.37663443 123.20247294 -18.36022317 119.71692828 -18.33028221 116.22953033 C-18.307821 112.89245123 -18.32356868 109.55588369 -18.3359375 106.21875 C-18.32581635 104.96968872 -18.31569519 103.72062744 -18.30526733 102.43371582 C-18.15401164 95.51759774 -18.15401164 95.51759774 -21.35009766 89.71289062 C-27.20016637 85.93142001 -30.40262336 87.4933653 -34 93 Z M16 93 C15.59738988 96.15701079 16.00279768 99.16415195 16.375 102.3125 C17.56455503 117.08068493 14.93172832 128.54064216 7.83984375 141.4765625 C6.18098693 144.65339657 4.86485286 147.5255911 4 151 C5.30867064 153.94450894 6.09402863 155.54701431 9 157 C11.78444577 157.75383338 11.78444577 157.75383338 15 157 C26.19175973 148.73452607 30.32445323 131.43484076 32.39453125 118.54296875 C33.65620059 108.93745952 34.18870396 98.58023194 29.25 89.9375 C27.1047438 87.77637165 27.1047438 87.77637165 24.0625 87.375 C19.86844995 88.23092858 18.56454334 89.58499271 16 93 Z M-90.1328125 91.109375 C-96.23162914 100.55105767 -94.19686516 114.56305774 -92 125 C-89.49821823 135.97690512 -86.34813846 148.14065172 -78.0625 156.25 C-75.05410413 158.295 -75.05410413 158.295 -71.3125 158.0625 C-68.02783402 157.24068137 -68.02783402 157.24068137 -66 155.3125 C-64.54264965 151.94237731 -64.88668912 150.53639927 -66 147 C-66.90776915 145.44064195 -67.84917914 143.90066552 -68.8125 142.375 C-74.24823555 133.73792981 -77.24718835 123.95033253 -76.95703125 113.74609375 C-76.93576172 112.56208984 -76.91449219 111.37808594 -76.89257812 110.15820312 C-76.83910266 107.67355062 -76.77395773 105.18912241 -76.69726562 102.70507812 C-76.67986328 101.52236328 -76.66246094 100.33964844 -76.64453125 99.12109375 C-76.61721924 98.0427124 -76.58990723 96.96433105 -76.56176758 95.85327148 C-77.11002342 92.28365252 -78.14502817 91.14797203 -81 89 C-85.153202 88.33252111 -87.0725718 88.08276332 -90.1328125 91.109375 Z " fill="#D05AFF" transform="translate(306,115)"/>
<path d="M0 0 C48.84 0 97.68 0 148 0 C148 12 148 12 145 17 C141.61701281 19.25532479 140.47259887 19.25250932 136.50979614 19.26069641 C134.79796143 19.27132362 134.79796143 19.27132362 133.05154419 19.28216553 C131.7984848 19.27968811 130.54542542 19.27721069 129.25439453 19.2746582 C127.93550232 19.27976913 126.61661011 19.28488007 125.25775146 19.29014587 C121.63784602 19.30355036 118.01804489 19.30411285 114.39811945 19.30158257 C111.3762725 19.30051363 108.35444671 19.30539436 105.33260429 19.310188 C98.20267715 19.32128864 91.07280269 19.32171776 83.94287109 19.31567383 C76.58845527 19.3096354 69.23423082 19.32194035 61.87984765 19.3432439 C55.56552381 19.36086188 49.25126088 19.36686087 42.93691337 19.36360615 C39.16575601 19.36179313 35.39473511 19.3644311 31.62360001 19.37832069 C28.07605065 19.39089737 24.52879936 19.38895671 20.98125458 19.37590981 C19.06066613 19.3724168 17.1400686 19.38372382 15.21951294 19.39547729 C13.49921875 19.38495583 13.49921875 19.38495583 11.74417114 19.3742218 C10.7497658 19.37438954 9.75536045 19.37455729 8.73082161 19.37473011 C5.5073723 18.93240041 3.61773483 17.90270643 1 16 C-1.38979311 11.22041378 0 5.34373985 0 0 Z " fill="#D05AFF" transform="translate(198,321)"/>
</svg>
